<?xml version="1.0" encoding="UTF-8"?>
<svg id="Layer_2" data-name="Layer 2" xmlns="http://www.w3.org/2000/svg" viewBox="0 0 76.91 73.69">
  <g id="Layer_1-2" data-name="Layer 1">
    <path d="M55.14,0V13.72h-19.9v50.96h-15.44V13.72H0V0H55.14Z"/>
    <path d="M72.39,28.51c3.01,3.42,4.51,7.98,4.51,13.67s-1.5,10.18-4.51,13.6c-3.05,3.42-7.1,5.14-12.14,5.14s-9.14-1.99-12.01-5.97v18.74h-5.55V24.28h5.27v5.55c2.87-4.26,6.96-6.38,12.28-6.38,5.04,0,9.09,1.69,12.14,5.07Zm-4.48,23.63c2.11-2.52,3.16-5.93,3.16-10.24s-1.03-7.51-3.09-9.89c-2.06-2.38-4.87-3.57-8.43-3.57s-6.32,1.2-8.4,3.61c-2.08,2.41-3.12,5.78-3.12,10.13s1.04,7.66,3.12,10.06c2.08,2.45,4.88,3.68,8.4,3.68s6.26-1.26,8.36-3.78Z"/>
  </g>
</svg>